<svg width="800" height="84" viewBox="0 0 800 84" fill="none" xmlns="http://www.w3.org/2000/svg">
<path d="M0 57.4685V2.41184C0 1.96829 0.137259 1.6079 0.411776 1.33068C0.741197 0.998005 1.12552 0.83167 1.56475 0.83167H20.9182C25.9694 0.83167 30.3067 2.63362 33.9304 6.23753C37.554 9.84144 39.3658 14.1661 39.3658 19.2116C39.3658 24.368 37.554 28.7758 33.9304 32.4352C30.3616 36.0945 26.0517 37.9242 21.0006 37.9242H10.7062V57.4685C10.7062 57.8566 10.5415 58.217 10.2121 58.5496C9.93754 58.8823 9.58066 59.0486 9.14143 59.0486H1.56475C1.12552 59.0486 0.741197 58.91 0.411776 58.6328C0.137259 58.3001 0 57.912 0 57.4685ZM10.7062 27.7778H20.2594C22.5653 27.7778 24.5419 26.9461 26.189 25.2828C27.891 23.6195 28.742 21.568 28.742 19.1284C28.742 16.8552 27.891 14.9424 26.189 13.3899C24.5419 11.8374 22.5653 11.0612 20.2594 11.0612H10.7062V27.7778Z" fill="#D4AF37"/>
<path d="M39.4263 59.0486C38.8224 59.0486 38.3557 58.8268 38.0263 58.3833C37.7517 57.9397 37.7517 57.4407 38.0263 56.8863L63.6388 0.914836C63.9133 0.304945 64.3799 0 65.0388 0H65.8623C66.5212 0 66.9879 0.304945 67.2624 0.914836L92.6278 56.8863C92.9023 57.4407 92.8749 57.9397 92.5455 58.3833C92.2709 58.8268 91.8317 59.0486 91.2278 59.0486H84.0629C83.0197 59.0486 82.2236 58.4942 81.6745 57.3853L77.6392 48.4032H53.0149L48.9795 57.3853C48.5403 58.4942 47.7442 59.0486 46.5912 59.0486H39.4263ZM57.0503 39.1717H73.6037L65.3682 20.8749H65.1211L57.0503 39.1717Z" fill="#D4AF37"/>
<path d="M114.061 58.9655L88.6136 2.99402C88.3391 2.43957 88.3391 1.94057 88.6136 1.49701C88.943 1.05345 89.4097 0.83167 90.0137 0.83167H98.4139C99.1276 0.83167 99.5943 1.13662 99.8139 1.74651L115.626 37.5084H116.203L132.015 1.74651C132.234 1.13662 132.701 0.83167 133.415 0.83167H141.815C142.419 0.83167 142.858 1.05345 143.133 1.49701C143.462 1.94057 143.49 2.43957 143.215 2.99402L117.685 58.9655C117.411 59.5754 116.944 59.8803 116.285 59.8803H115.461C114.803 59.8803 114.336 59.5754 114.061 58.9655Z" fill="#D4AF37"/>
<path d="M150.717 57.4685V2.41184C150.717 1.96829 150.854 1.6079 151.128 1.33068C151.458 0.998005 151.842 0.83167 152.281 0.83167H185.8C186.239 0.83167 186.596 0.998005 186.871 1.33068C187.2 1.6079 187.365 1.96829 187.365 2.41184V9.23154C187.365 9.6751 187.2 10.0632 186.871 10.3959C186.596 10.6731 186.239 10.8117 185.8 10.8117H161.423V24.4511H181.765C182.204 24.4511 182.561 24.6175 182.835 24.9501C183.165 25.2828 183.329 25.6432 183.329 26.0313V32.9342C183.329 33.3777 183.165 33.7658 182.835 34.0985C182.561 34.3757 182.204 34.5143 181.765 34.5143H161.423V49.0686H185.8C186.239 49.0686 186.596 49.2349 186.871 49.5676C187.2 49.8448 187.365 50.2052 187.365 50.6488V57.4685C187.365 57.912 187.2 58.3001 186.871 58.6328C186.596 58.91 186.239 59.0486 185.8 59.0486H152.281C151.842 59.0486 151.458 58.91 151.128 58.6328C150.854 58.3001 150.717 57.912 150.717 57.4685Z" fill="#D4AF37"/>
<path d="M199.132 57.4685V2.41184C199.132 1.96829 199.27 1.6079 199.544 1.33068C199.874 0.998005 200.258 0.83167 200.697 0.83167H208.274C208.713 0.83167 209.07 0.998005 209.345 1.33068C209.674 1.66334 209.839 2.02373 209.839 2.41184V49.0686H225.98C226.42 49.0686 226.776 49.2349 227.051 49.5676C227.38 49.8448 227.545 50.2052 227.545 50.6488V57.4685C227.545 57.912 227.38 58.3001 227.051 58.6328C226.776 58.91 226.42 59.0486 225.98 59.0486H200.697C200.258 59.0486 199.874 58.91 199.544 58.6328C199.27 58.3001 199.132 57.912 199.132 57.4685Z" fill="#D4AF37"/>
<path d="M244.352 81.4206V34.7639H231.511C231.07 34.7639 230.684 34.6253 230.353 34.348C230.078 34.0154 229.94 33.6273 229.94 33.1837V26.364C229.94 25.9204 230.078 25.56 230.353 25.2828C230.684 24.9502 231.07 24.7838 231.511 24.7838H267.829C268.269 24.7838 268.628 24.9502 268.903 25.2828C269.234 25.56 269.399 25.9204 269.399 26.364V33.1837C269.399 33.6273 269.234 34.0154 268.903 34.348C268.628 34.6253 268.269 34.7639 267.829 34.7639H255.181V81.4206C255.181 81.8087 255.015 82.1691 254.685 82.5018C254.354 82.8344 253.996 83.0008 253.61 83.0008H245.922C245.481 83.0008 245.095 82.8344 244.765 82.5018C244.489 82.1691 244.352 81.8087 244.352 81.4206Z" fill="white"/>
<path d="M281.893 75.1831C276.162 69.3614 273.296 62.2922 273.296 53.9755C273.296 45.6588 276.162 38.5896 281.893 32.7679C287.68 26.8907 294.706 23.9521 302.973 23.9521C311.24 23.9521 318.266 26.8907 324.053 32.7679C329.839 38.5896 332.733 45.6588 332.733 53.9755C332.733 62.2922 329.839 69.3614 324.053 75.1831C318.266 80.9493 311.24 83.8324 302.973 83.8324C294.706 83.8324 287.68 80.9493 281.893 75.1831ZM289.581 40.4192C285.889 44.1895 284.043 48.7082 284.043 53.9755C284.043 59.2427 285.889 63.7337 289.581 67.4485C293.329 71.1633 297.793 73.0207 302.973 73.0207C308.208 73.0207 312.672 71.1633 316.365 67.4485C320.112 63.6783 321.986 59.1873 321.986 53.9755C321.986 48.7082 320.112 44.1895 316.365 40.4192C312.617 36.649 308.153 34.7639 302.973 34.7639C297.793 34.7639 293.329 36.649 289.581 40.4192Z" fill="white"/>
<path d="M343.546 81.4206V26.364C343.546 25.9204 343.683 25.56 343.959 25.2828C344.29 24.9502 344.675 24.7838 345.116 24.7838H364.543C369.613 24.7838 373.966 26.5858 377.604 30.1897C381.241 33.7936 383.06 38.1183 383.06 43.1637C383.06 48.3201 381.241 52.728 377.604 56.3873C374.022 60.0467 369.695 61.8763 364.625 61.8763H354.292V81.4206C354.292 81.8087 354.127 82.1691 353.796 82.5018C353.521 82.8344 353.162 83.0008 352.721 83.0008H345.116C344.675 83.0008 344.29 82.8622 343.959 82.5849C343.683 82.2523 343.546 81.8642 343.546 81.4206ZM354.292 51.73H363.881C366.196 51.73 368.18 50.8983 369.833 49.2349C371.542 47.5716 372.396 45.5201 372.396 43.0806C372.396 40.8073 371.542 38.8945 369.833 37.342C368.18 35.7896 366.196 35.0134 363.881 35.0134H354.292V51.73Z" fill="white"/>
<path d="M396.931 75.1831C391.199 69.3614 388.333 62.2922 388.333 53.9755C388.333 45.6588 391.199 38.5896 396.931 32.7679C402.717 26.8907 409.744 23.9521 418.01 23.9521C426.277 23.9521 433.304 26.8907 439.09 32.7679C444.877 38.5896 447.77 45.6588 447.77 53.9755C447.77 62.2922 444.877 69.3614 439.09 75.1831C433.304 80.9493 426.277 83.8324 418.01 83.8324C409.744 83.8324 402.717 80.9493 396.931 75.1831ZM404.619 40.4192C400.926 44.1895 399.08 48.7082 399.08 53.9755C399.08 59.2427 400.926 63.7337 404.619 67.4485C408.366 71.1633 412.83 73.0207 418.01 73.0207C423.246 73.0207 427.71 71.1633 431.402 67.4485C435.15 63.6783 437.023 59.1873 437.023 53.9755C437.023 48.7082 435.15 44.1895 431.402 40.4192C427.655 36.649 423.191 34.7639 418.01 34.7639C412.83 34.7639 408.366 36.649 404.619 40.4192Z" fill="white"/>
<path d="M458.583 81.4206V26.364C458.583 25.9204 458.721 25.56 458.996 25.2828C459.327 24.9502 459.713 24.7838 460.154 24.7838H483.796C488.756 24.7838 492.999 26.5303 496.526 30.0233C500.053 33.5164 501.817 37.7302 501.817 42.6647C501.817 46.435 500.687 49.8171 498.428 52.8111C496.223 55.7497 493.275 57.9675 489.583 59.4645L500.908 80.5889C501.238 81.1434 501.238 81.6978 500.908 82.2523C500.632 82.7513 500.164 83.0008 499.502 83.0008H490.823C490.216 83.0008 489.775 82.7513 489.5 82.2523L478.505 60.213H469.329V81.4206C469.329 81.8087 469.164 82.1691 468.834 82.5018C468.558 82.8344 468.2 83.0008 467.759 83.0008H460.154C459.713 83.0008 459.327 82.8622 458.996 82.5849C458.721 82.2523 458.583 81.8642 458.583 81.4206ZM469.412 51.3141H482.887C485.091 51.3141 486.992 50.4824 488.591 48.8191C490.244 47.1558 491.071 45.1598 491.071 42.8311C491.071 40.6133 490.244 38.7282 488.591 37.1757C486.992 35.5678 485.091 34.7639 482.887 34.7639H469.412V51.3141Z" fill="white"/>
<path d="M518.103 75.1831C512.372 69.3614 509.506 62.2922 509.506 53.9755C509.506 45.6588 512.372 38.5896 518.103 32.7679C523.89 26.8907 530.917 23.9521 539.183 23.9521C547.45 23.9521 554.476 26.8907 560.263 32.7679C566.049 38.5896 568.943 45.6588 568.943 53.9755C568.943 62.2922 566.049 69.3614 560.263 75.1831C554.476 80.9493 547.45 83.8324 539.183 83.8324C530.917 83.8324 523.89 80.9493 518.103 75.1831ZM525.791 40.4192C522.099 44.1895 520.253 48.7082 520.253 53.9755C520.253 59.2427 522.099 63.7337 525.791 67.4485C529.539 71.1633 534.003 73.0207 539.183 73.0207C544.419 73.0207 548.883 71.1633 552.575 67.4485C556.322 63.6783 558.196 59.1873 558.196 53.9755C558.196 48.7082 556.322 44.1895 552.575 40.4192C548.827 36.649 544.363 34.7639 539.183 34.7639C534.003 34.7639 529.539 36.649 525.791 40.4192Z" fill="white"/>
<path d="M597.373 82.9176L571.83 26.9462C571.554 26.3917 571.554 25.8927 571.83 25.4492C572.16 25.0056 572.629 24.7838 573.235 24.7838H581.667C582.383 24.7838 582.852 25.0888 583.072 25.6987L598.944 61.4605H599.522L615.394 25.6987C615.615 25.0888 616.083 24.7838 616.8 24.7838H625.231C625.838 24.7838 626.279 25.0056 626.554 25.4492C626.885 25.8927 626.912 26.3917 626.637 26.9462L601.01 82.9176C600.735 83.5275 600.266 83.8324 599.605 83.8324H598.779C598.117 83.8324 597.649 83.5275 597.373 82.9176Z" fill="white"/>
<path d="M631.19 77.3454C630.419 76.5692 630.281 75.7375 630.777 74.8504L633.753 69.694C634.084 69.1396 634.552 68.8347 635.158 68.7792C635.765 68.6683 636.233 68.7792 636.564 69.1119L636.977 69.3614C637.253 69.5832 637.556 69.8049 637.886 70.0267C638.272 70.2485 638.741 70.5257 639.292 70.8584C639.843 71.191 640.394 71.5237 640.945 71.8564C641.496 72.1336 642.13 72.4386 642.846 72.7712C643.563 73.0484 644.252 73.2979 644.913 73.5197C645.574 73.7415 646.263 73.9356 646.98 74.1019C647.696 74.2128 648.385 74.2682 649.046 74.2682C651.196 74.2682 652.987 73.6583 654.419 72.4386C655.852 71.1633 656.569 69.6386 656.569 67.8644C656.569 65.8129 655.715 64.011 654.006 62.4585C652.298 60.8506 649.652 59.3259 646.07 57.8843C641.441 55.9992 637.693 53.6428 634.828 50.8151C631.962 47.9874 630.529 44.3558 630.529 39.9202C630.529 35.7064 632.1 31.9916 635.241 28.7758C638.437 25.56 643.067 23.9521 649.129 23.9521C655.246 23.9521 660.757 25.8095 665.662 29.5243C666.048 29.7461 666.296 30.162 666.406 30.7719C666.516 31.3817 666.434 31.8807 666.158 32.2689L663.017 37.0094C662.135 38.3401 661.17 38.6727 660.123 38.0074C655.274 34.9579 651.444 33.4332 648.633 33.4332C646.428 33.4332 644.665 34.0431 643.342 35.2629C642.02 36.4827 641.358 37.8133 641.358 39.2549C641.358 41.1955 642.13 42.8865 643.673 44.3281C645.216 45.7696 647.696 47.1835 651.113 48.5696C653.483 49.5122 655.522 50.4824 657.23 51.4805C658.994 52.423 660.785 53.6428 662.603 55.1398C664.477 56.5814 665.91 58.3556 666.902 60.4625C667.894 62.514 668.39 64.8149 668.39 67.3654C668.39 71.8564 666.626 75.7375 663.099 79.0088C659.572 82.2245 654.998 83.8324 649.377 83.8324C646.236 83.8324 643.232 83.3612 640.366 82.4186C637.556 81.476 635.544 80.6167 634.332 79.8404C633.119 79.0088 632.072 78.1771 631.19 77.3454Z" fill="white"/>
<path d="M678.97 81.0048V26.7798C678.97 26.2254 679.163 25.7541 679.549 25.366C679.935 24.9779 680.403 24.7838 680.954 24.7838H688.229C688.78 24.7838 689.249 24.9779 689.634 25.366C690.02 25.7541 690.213 26.2254 690.213 26.7798V49.2349L711.045 25.6155C711.486 25.061 712.009 24.7838 712.615 24.7838H720.882C721.653 24.7838 722.205 25.1442 722.535 25.865C722.866 26.5303 722.756 27.1679 722.205 27.7778L700.629 52.229L723.775 80.0899C724.216 80.6444 724.271 81.282 723.94 82.0028C723.61 82.6681 723.059 83.0008 722.287 83.0008H713.277C712.56 83.0008 712.064 82.8067 711.789 82.4186L690.213 55.6388V81.0048C690.213 81.5592 690.02 82.0305 689.634 82.4186C689.249 82.8067 688.78 83.0008 688.229 83.0008H680.954C680.403 83.0008 679.935 82.8067 679.549 82.4186C679.163 82.0305 678.97 81.5592 678.97 81.0048Z" fill="white"/>
<path d="M732.897 81.4206V26.364C732.897 25.9759 733.035 25.6155 733.31 25.2828C733.641 24.9502 734.027 24.7838 734.467 24.7838H742.155C742.541 24.7838 742.899 24.9502 743.23 25.2828C743.561 25.6155 743.726 25.9759 743.726 26.364V81.4206C743.726 81.8087 743.561 82.1691 743.23 82.5018C742.899 82.8344 742.541 83.0008 742.155 83.0008H734.467C734.027 83.0008 733.641 82.8344 733.31 82.5018C733.035 82.1691 732.897 81.8087 732.897 81.4206Z" fill="white"/>
<path d="M769.888 81.4206V54.9735L751.04 27.1957C750.709 26.6412 750.682 26.1145 750.957 25.6155C751.233 25.061 751.701 24.7838 752.363 24.7838H760.794C761.29 24.7838 761.731 25.0333 762.117 25.5323L775.344 44.6608L788.57 25.5323C788.956 25.0333 789.397 24.7838 789.893 24.7838H798.407C799.069 24.7838 799.537 25.061 799.813 25.6155C800.088 26.1145 800.061 26.6412 799.73 27.1957L780.634 54.8903V81.4206C780.634 81.8087 780.469 82.1691 780.138 82.5018C779.863 82.8344 779.504 83.0008 779.064 83.0008H771.458C771.017 83.0008 770.632 82.8622 770.301 82.5849C770.025 82.2523 769.888 81.8642 769.888 81.4206Z" fill="white"/>
</svg>
